<?xml version="1.0" standalone="no"?>
<!DOCTYPE svg PUBLIC "-//W3C//DTD SVG 20010904//EN"
 "http://www.w3.org/TR/2001/REC-SVG-20010904/DTD/svg10.dtd">
<svg version="1.0" xmlns="http://www.w3.org/2000/svg"
 width="401.000000pt" height="200.000000pt" viewBox="0 0 800.000000 314.000000"
 preserveAspectRatio="xMidYMid meet">
<metadata>
Created by potrace 1.13, written by Peter Selinger 2001-2015
</metadata>
<g transform="translate(0.000000,314.000000) scale(0.100000,-0.100000)"
fill="#000000" stroke="none">
<path d="M1739 2110 c-49 -14 -67 -30 -89 -75 -74 -153 141 -275 233 -133 36
56 36 103 -2 155 -17 24 -41 43 -58 47 -15 4 -35 9 -43 11 -8 1 -27 0 -41 -5z"/>
<path d="M5903 2100 c-12 -5 -34 -27 -49 -49 -22 -34 -26 -49 -22 -85 9 -77
63 -126 139 -126 74 0 139 66 139 142 0 40 -34 94 -70 113 -32 16 -102 19
-137 5z"/>
<path d="M6480 2084 c-103 -36 -155 -106 -166 -222 l-7 -72 -33 0 -34 0 0
-100 0 -100 35 0 35 0 0 -290 0 -290 120 0 120 0 0 289 0 290 48 3 47 3 3 98
3 97 -51 0 c-50 0 -50 0 -50 33 0 43 23 75 58 79 l27 3 3 98 3 97 -58 0 c-32
-1 -78 -8 -103 -16z"/>
<path d="M2965 1888 l0 -93 -35 -5 -35 -5 -3 -75 c-4 -103 1 -118 41 -122 l32
-3 5 -217 5 -216 30 -43 c49 -70 107 -93 242 -98 l113 -3 0 101 0 101 -60 0
c-98 0 -100 5 -100 210 l0 170 80 0 80 0 0 100 0 100 -80 0 -80 0 0 95 0 95
-117 0 -118 0 0 -92z"/>
<path d="M2447 1790 c-54 -14 -97 -38 -134 -77 l-33 -33 0 55 0 55 -120 0
-120 0 0 -390 0 -391 118 3 117 3 3 230 c1 127 5 240 7 252 6 28 49 71 82 84
44 16 108 11 144 -14 64 -43 69 -64 69 -324 l0 -233 120 0 120 0 0 238 c0 318
-15 391 -97 468 -70 66 -184 97 -276 74z"/>
<path d="M3757 1789 c-87 -11 -139 -38 -207 -108 -42 -43 -61 -72 -79 -124
-43 -125 -29 -284 34 -382 74 -114 167 -166 306 -173 132 -7 226 27 309 110
36 36 86 125 77 135 -9 8 -251 3 -257 -6 -24 -37 -129 -52 -180 -26 -35 18
-70 61 -70 86 0 18 15 19 268 21 l267 3 3 50 c8 115 -39 244 -111 312 -94 88
-211 121 -360 102z m181 -234 c17 -17 34 -42 38 -57 l6 -28 -146 0 c-160 0
-165 2 -129 57 31 47 71 64 139 61 51 -3 65 -8 92 -33z"/>
<path d="M4590 1791 c-98 -21 -193 -103 -243 -209 -30 -64 -32 -73 -32 -187 0
-115 1 -123 32 -186 102 -208 348 -274 499 -133 l44 40 0 -75 c0 -101 -13
-143 -56 -180 -29 -26 -43 -31 -88 -31 -83 0 -114 10 -149 46 l-31 34 -114 0
-114 0 7 -37 c19 -104 106 -196 216 -229 86 -25 262 -25 334 0 89 32 149 86
192 173 l38 77 3 448 3 449 -118 -3 -118 -3 -3 -43 -3 -43 -31 26 c-73 61
-175 87 -268 66z m229 -231 c18 -12 42 -41 52 -64 22 -49 25 -143 5 -189 -53
-125 -230 -136 -299 -18 -24 40 -33 137 -18 184 12 36 65 95 99 109 35 15 127
3 161 -22z"/>
<path d="M5655 1785 c-40 -11 -61 -24 -102 -69 l-52 -56 -3 63 -3 62 -117 3
-118 3 0 -391 0 -391 118 3 117 3 5 225 c5 227 7 237 43 277 20 22 32 26 130
38 l47 6 0 114 c0 63 -3 116 -7 118 -5 3 -30 -1 -58 -8z"/>
<path d="M1654 1777 c-3 -8 -4 -182 -2 -388 l3 -374 118 -3 117 -3 0 391 0
390 -115 0 c-87 0 -117 -3 -121 -13z"/>
<path d="M5857 1783 c-4 -3 -7 -179 -7 -390 l0 -383 120 0 120 0 0 390 0 390
-113 0 c-63 0 -117 -3 -120 -7z"/>
<path d="M6720 1784 c0 -3 20 -56 44 -117 25 -62 92 -232 150 -379 l105 -268
-55 -127 c-54 -124 -104 -244 -104 -250 0 -2 55 -3 123 -3 l122 0 129 303 c71
166 146 340 166 387 21 47 63 146 95 220 32 74 68 158 80 185 l22 50 -120 3
c-66 1 -123 -1 -127 -5 -4 -4 -47 -117 -96 -250 -49 -134 -91 -243 -94 -243
-3 0 -44 111 -91 248 l-84 247 -133 3 c-72 1 -132 0 -132 -4z"/>
<path d="M966 1584 l-99 -66 7 -57 c3 -31 17 -139 31 -241 35 -253 43 -499 21
-605 -9 -44 -25 -96 -35 -115 -37 -72 -122 -101 -186 -62 -31 20 -37 28 -80
129 -36 82 -62 106 -119 107 -56 1 -96 -27 -115 -81 -45 -127 115 -283 290
-283 180 0 333 100 418 274 57 116 75 218 68 376 -6 121 -47 468 -67 560 -5
25 -12 64 -15 88 -4 23 -10 42 -13 42 -4 -1 -51 -30 -106 -66z"/>
</g>
</svg>
